<?xml version="1.0" encoding="utf-8" ?>
<svg xmlns="http://www.w3.org/2000/svg" xmlns:xlink="http://www.w3.org/1999/xlink" width="512" height="512">
	<path fill="#0B1317" transform="scale(0.866328 0.761905)" d="M455.321 373.394C456.062 373.442 456.972 373.419 457.662 373.706C458.672 374.127 459.155 375.385 459.509 376.325C460.573 379.145 460.982 382.352 461.676 385.297Q463.05 390.908 465.283 396.236C469.941 407.465 479.344 415.527 490.745 419.359C494.33 420.564 498.423 420.997 501.853 422.525C502.861 422.975 503.777 423.669 504.115 424.758C504.518 426.057 504.23 426.706 503.157 427.567C498.879 431.004 486.774 432.382 480.325 436.862C471.173 443.217 465.013 454.859 461.943 465.295C460.801 469.178 460.377 473.213 458.373 476.79C457.758 477.459 456.853 477.739 455.954 477.764C454.886 477.795 453.929 477.391 453.368 476.442C451.757 473.72 451.295 469.503 450.505 466.402C449.08 460.804 447.074 455.341 444.036 450.407C439.235 442.606 431.732 435.93 423.109 432.678C420.924 431.853 412.845 430.139 411.525 428.643C410.954 427.995 410.731 427.265 410.781 426.409C410.846 425.28 411.363 424.423 412.313 423.811C414.452 422.434 417.2 421.9 419.593 421.078C426.249 418.79 432.018 415.423 436.982 410.395Q438.443 408.907 439.766 407.295Q441.088 405.683 442.262 403.96Q443.436 402.236 444.452 400.415Q445.468 398.594 446.317 396.69Q448.692 391.298 450.348 385.644C451.3 382.337 451.981 378.44 453.567 375.381C453.985 374.574 454.643 373.981 455.321 373.394Z"/>
	<path fill="#0B1317" transform="scale(0.866328 0.761905)" d="M166.209 81.9789C166.698 81.9795 167.196 81.9844 167.679 82.0598C168.955 82.2586 170.235 82.7264 170.935 83.8716C172.499 86.4333 172.893 89.9725 173.657 92.8674C175.544 100.015 178.343 106.991 182.722 112.995Q183.86 114.586 185.161 116.046Q186.462 117.506 187.912 118.818Q189.362 120.13 190.944 121.28Q192.526 122.43 194.222 123.404Q198.041 125.555 202.16 127.054C205.002 128.116 213.011 129.356 214.676 131.725C215.223 132.503 215.524 133.755 215.267 134.682C214.465 137.569 202.813 139.731 200.089 140.696Q196.563 141.947 193.368 143.892C183.614 149.846 177.368 161.423 174.127 172.079C173.354 174.619 173.036 177.267 172.377 179.834C171.827 181.972 171.265 182.837 169.342 183.936C167.772 183.932 165.852 184.022 164.697 182.755C162.581 180.434 160.689 170.747 159.424 167.374C157.762 162.945 155.624 158.623 152.899 154.747C148.039 147.835 141.343 142.812 133.266 140.312C129.967 139.291 123.407 138.747 121.086 136.271C120.276 135.407 119.887 134.164 120.026 132.989C120.531 128.717 132.93 127.566 136.454 125.985C140.636 124.109 144.694 121.28 147.997 118.113C154.559 111.823 159.629 102.203 161.849 93.44C162.619 90.4007 162.785 86.8686 164.112 84.0223C164.534 83.1163 165.422 82.5456 166.209 81.9789Z"/>
	<path fill="#0B1317" transform="scale(0.866328 0.761905)" d="M424.647 123.508Q425.934 123.366 427.229 123.329C431.054 123.233 434.786 124.243 437.557 127.031C439.894 129.382 441.434 132.694 441.268 136.044C441.11 139.24 439.658 141.657 437.618 143.998C434.32 147.785 430.214 150.882 426.362 154.082Q420.828 158.633 415.538 163.465Q394.564 182.306 374.666 202.281Q352.913 224.18 332.469 247.306Q312.026 270.432 292.962 294.708C269.519 324.279 246.926 354.909 227.659 387.402C208.406 419.873 192.112 453.856 177.037 488.436Q167.738 510.244 159.77 532.573Q151.801 554.902 145.192 577.67C141.353 590.852 138.166 604.421 135.199 617.828C133.772 624.278 132.948 631.423 130.858 637.656C130.09 639.946 128.888 642.41 126.995 643.965C126.038 644.751 124.82 645.513 123.546 645.351C123.016 645.874 122.637 646.116 121.907 646.314C118.805 647.153 115.52 646.531 112.768 644.942C110.386 643.565 108.281 641.213 107.707 638.457C106.655 633.405 113.328 606.638 114.848 599.976Q116.825 591.198 119.003 582.469Q121.181 573.739 123.558 565.061Q125.936 556.383 128.512 547.763Q131.089 539.142 133.862 530.583Q136.636 522.023 139.605 513.53Q142.575 505.037 145.739 496.614Q148.902 488.191 152.259 479.843Q155.615 471.495 159.162 463.226Q162.709 454.957 166.445 446.772Q170.181 438.587 174.104 430.489Q178.027 422.392 182.135 414.387Q186.243 406.382 190.533 398.473Q194.824 390.565 199.295 382.757Q203.766 374.949 208.415 367.245Q213.064 359.542 217.889 351.947Q222.714 344.353 227.712 336.871C240.599 317.326 254.71 298.833 269.202 280.465Q283.462 262.198 298.527 244.589Q313.593 226.981 329.435 210.067Q345.276 193.153 361.861 176.968Q378.446 160.782 395.742 145.358C402.261 139.582 416.894 125.1 424.647 123.508Z"/>
	<path fill="#0B1317" transform="scale(0.866328 0.761905)" d="M519.668 32.2914C531.539 31.6013 543.083 32.4969 554.872 33.9416C555.573 42.3985 555.179 50.8668 554.686 59.322C553.274 83.5598 549.531 107.162 541.927 130.282Q539.992 136.056 537.699 141.697Q535.406 147.339 532.765 152.826Q530.123 158.313 527.143 163.623Q524.164 168.934 520.857 174.048Q518.965 177.031 516.95 179.933Q514.936 182.835 512.802 185.651Q510.669 188.466 508.42 191.191Q506.171 193.915 503.811 196.544Q501.451 199.172 498.983 201.7Q496.516 204.228 493.945 206.651Q491.375 209.075 488.705 211.389Q486.036 213.703 483.273 215.904C474.514 222.815 464.848 228.502 455.151 233.976Q432.338 246.649 408.796 257.909C401.276 261.527 393.617 264.852 386.164 268.61C405.123 273.093 423.222 277.5 442.786 278.171C447.984 278.349 453.572 278.487 458.713 277.654C456.271 281.172 453.341 284.476 450.628 287.789Q442.384 297.872 433.934 307.782C429.409 313.189 424.256 320.905 418.875 325.202C410.166 332.157 358.586 333.093 345.939 331.676C366.608 344.368 375.21 346.78 399.598 348.524C396.143 354.023 391.806 358.814 387.655 363.782L372.155 382.509C368.381 387.088 362.318 395.702 358.341 399.305C354.857 402.461 346.86 403.491 342.326 404.46C316.441 409.995 284.597 414.098 258.098 412.946C262.074 416.194 265.765 419.72 269.885 422.805C283.482 432.988 298.349 440.542 313.558 447.952C307.985 456.189 299.887 464.107 293.012 471.374Q281.646 483.568 269.613 495.104Q257.58 506.64 244.917 517.481Q232.254 528.323 219.001 538.435Q205.749 548.547 191.949 557.898C181.485 565.017 170.87 572.313 159.542 577.989C163.315 566.961 166.724 555.805 170.597 544.814Q182.323 512.033 196.228 480.114Q205.731 458.25 216.568 437.016Q227.405 415.782 239.536 395.259Q254.189 371.105 270.417 347.98Q286.645 324.854 304.375 302.859Q327.781 273.184 353.179 245.193Q378.576 217.203 405.844 191.031Q419.215 178.37 433.119 166.296C438.64 161.475 444.543 157.016 449.401 151.49C451.408 149.207 452.918 146.891 453.919 144.007C456.121 137.666 456.234 130.973 453.261 124.87C450.003 118.183 443.986 113.521 437.023 111.15C429.941 108.739 421.507 109.095 414.76 112.403C404.786 117.294 396.197 126.35 387.986 133.667Q365.298 153.518 344.13 174.983C262.22 258.444 192.028 349.275 145.695 457.438Q134.36 483.791 125.065 510.931C122.372 518.782 120.128 526.764 117.454 534.619C113.801 510.759 111.878 485.767 113.099 461.645C114.06 442.649 115.881 423.626 119.683 404.971Q123.9 385.134 130.25 365.873Q131.329 362.531 132.463 359.207Q133.596 355.883 134.784 352.578Q135.971 349.273 137.213 345.987Q138.454 342.702 139.748 339.437Q141.043 336.172 142.39 332.929Q143.738 329.686 145.138 326.465Q146.538 323.244 147.99 320.047Q149.442 316.849 150.946 313.675Q152.451 310.502 154.006 307.353Q155.562 304.204 157.169 301.081Q158.775 297.958 160.433 294.862Q162.09 291.766 163.797 288.697Q165.505 285.628 167.262 282.587Q169.019 279.546 170.826 276.534Q172.632 273.522 174.488 270.54Q176.343 267.558 178.246 264.607Q180.15 261.656 182.101 258.735Q184.053 255.815 186.051 252.928Q188.05 250.04 190.096 247.185Q192.141 244.33 194.233 241.508Q196.324 238.687 198.461 235.9Q200.599 233.113 202.781 230.362Q204.963 227.61 207.19 224.894Q209.417 222.178 211.688 219.499Q213.959 216.82 216.273 214.178Q218.587 211.536 220.943 208.932Q223.3 206.328 225.699 203.763Q228.098 201.197 230.538 198.672Q232.979 196.146 235.46 193.66Q237.941 191.174 240.462 188.729Q242.983 186.284 245.544 183.88Q248.105 181.477 250.704 179.115C249.302 210.284 250.373 233.667 261.148 263.144C277.635 215.989 291.344 165.115 325.423 127.065C366.615 81.0733 426.419 46.6211 487.235 35.6564C497.956 33.7235 508.806 32.8935 519.668 32.2914ZM211.146 255.188C207.255 264.126 203.163 268.879 193.935 272.511L192.941 272.898C200.481 275.716 205.456 280.275 208.804 287.607Q209.714 289.616 210.579 291.645C215.813 282.092 218.345 277.757 228.65 273.277C222.942 270.472 216.508 267.198 213.747 261.087C212.958 259.341 212.335 256.616 211.146 255.188Z"/>
</svg>
